<svg viewBox="0 0 62 62" fill="none" xmlns="http://www.w3.org/2000/svg">
  <path d="M43.21 18.24c0-.506-.187-.89-.56-1.153-.214-.155-.576-.3-1.08-.438v3.193c.692-.031 1.17-.285 1.432-.758.14-.24.209-.526.209-.844zM40.995 12.543c-.537.02-.913.182-1.143.485-.229.304-.34.622-.34.953 0 .401.132.713.398.943.271.225.63.384 1.081.473l.004-2.854z" fill="#4B9460"/>
  <path d="M41.276 23.351a6.983 6.983 0 006.984-6.979 6.981 6.981 0 10-6.983 6.98zm-2.224-7.68c-.419-.388-.632-.927-.632-1.615 0-.616.223-1.17.676-1.664.453-.494 1.08-.746 1.9-.752v-.808h.574v.795c.808.056 1.424.294 1.856.711.427.42.653.97.673 1.658h-1.062a1.833 1.833 0 00-.25-.796c-.254-.409-.661-.624-1.223-.643v2.958c.94.262 1.579.51 1.917.74.546.38.819.944.819 1.688 0 1.077-.351 1.841-1.052 2.296-.389.252-.949.417-1.68.498v1.178h-.575v-1.178c-1.176-.076-1.978-.494-2.4-1.25-.229-.407-.344-.961-.344-1.658h1.076c.035.554.122.96.263 1.216.25.457.723.713 1.41.77v-3.308c-.883-.168-1.53-.447-1.945-.835zM29.32 6.636c0-.378-.14-.667-.419-.866-.161-.115-.432-.223-.812-.328v2.395c.517-.023.88-.213 1.077-.568.1-.18.154-.391.154-.633zM27.657 2.366c-.403.017-.686.137-.858.366-.17.227-.256.467-.256.715 0 .302.101.535.302.707.2.17.47.29.812.355V2.366z" fill="#4B9460"/>
  <path d="M27.866 10.472A5.236 5.236 0 1027.863 0a5.236 5.236 0 00.003 10.47zM26.198 4.71c-.316-.292-.473-.695-.473-1.211 0-.461.17-.879.508-1.249.34-.37.815-.56 1.422-.564v-.605h.432v.597c.603.043 1.069.219 1.395.533.32.314.49.727.505 1.242h-.798a1.386 1.386 0 00-.186-.597c-.197-.306-.498-.467-.916-.481v2.217c.705.196 1.18.382 1.435.556.407.285.613.707.613 1.267 0 .808-.262 1.38-.787 1.721-.291.188-.711.312-1.26.374v.885h-.433V8.51c-.884-.057-1.485-.37-1.797-.938-.174-.306-.263-.721-.263-1.244h.812c.023.415.09.719.195.911.19.343.543.535 1.058.579V5.336c-.662-.126-1.15-.335-1.462-.626zM24.284 29.93c-1.157-.201-1.986-.695-2.449-1.522-.301-.527-.448-1.242-.448-2.143h1.389c.043.717.16 1.24.343 1.57.324.594.93.924 1.817.999v-4.28c-1.135-.215-1.974-.573-2.516-1.075-.543-.504-.814-1.2-.814-2.09 0-.795.293-1.51.874-2.151.585-.637 1.402-.961 2.456-.973V17.22h.746v1.03c1.041.074 1.84.38 2.395.919.56.541.851 1.254.878 2.141h-1.372a2.385 2.385 0 00-.322-1.03c-.331-.526-.856-.805-1.58-.83v3.823c1.216.342 2.036.662 2.472.957.71.492 1.06 1.22 1.06 2.183 0 1.393-.452 2.38-1.355 2.967-.374.24-.907.4-1.53.52 1.809.061 3.609.352 5.345.875a9.008 9.008 0 002.655-6.394 9.026 9.026 0 00-18.05 0 8.976 8.976 0 002.813 6.535 21.084 21.084 0 015.193-.988z" fill="#4B9460"/>
  <path d="M23.544 22.516c.344.294.813.498 1.398.614V19.44c-.69.027-1.184.235-1.478.628-.295.393-.44.804-.44 1.234 0 .517.173.92.52 1.215zM27.082 25.31c-.279-.198-.742-.386-1.399-.564v4.13c.895-.044 1.51-.37 1.852-.982.18-.314.268-.68.268-1.092 0-.657-.24-1.15-.72-1.492zM56.247 48.092c1.102-1.152 1.203-3.282 1.023-6.132-1.295-.09-3.207.128-3.883 0-1.64-3.266-3.999-5.812-7.357-7.36.113-2.13.399-4.09 1.63-5.109-2.994-.206-5.534 1.821-7.148 3.68-1.453-1.508-3.6-2.708-6.132-3.553l-1.573 2.798a22.037 22.037 0 00-14.468.047l-2.053-2.757c-.004-.008-.012-.017-.018-.023-3.21 1.063-6.159 2.726-8.457 5.121-1.494-.113-1.325-3.143.614-2.655-3.154-2.15-4.894 3.743-1.841 4.495-2.544 3.635-2.788 11.44.613 14.303.496 4.303 1.257 8.344 3.35 11.053h6.866c-.18-1.397-.362-2.885-.205-4.514 4.173.947 9.127 1.224 14.097.819.767 1.271 1.508 2.567 2.426 3.693h6.801c-.245-1.8-.52-3.685-.029-5.534 1.637-.308 10.055-2.447 15.744-8.372zm-9.383-9.125c.935 0 1.689.757 1.689 1.687 0 .936-.754 1.69-1.688 1.69-.93 0-1.689-.758-1.689-1.69a1.69 1.69 0 011.688-1.687z" fill="#4B9460"/>
</svg>