<svg  viewBox="0 0 1000 1000" fill="none" xmlns="http://www.w3.org/2000/svg">
  <circle cx="500" cy="500" r="492.5" fill="#3F8379" stroke="#000" stroke-width="15"/>
  <path d="M460.294 117.369c21.623-25.694 60.864-26.644 83.706-2.027l184.114 223.001A100 100 0 0 1 751 402.01v339.354c0 55.229-44.772 100-100 100H487.546c-53.321 0-96.546-43.224-96.546-96.545v-26.546c0-38.66-31.34-70-70-70s-70-31.34-70-70V402.542a100 100 0 0 1 23.489-64.389l185.805-220.784Z" fill="#85CA93"/>
  <path d="M701 833.865H537.546c-49.179 0-89.046-39.868-89.046-89.046v-26.546c0-42.802-34.698-77.5-77.5-77.5-34.518 0-62.5-27.982-62.5-62.5V402.542a92.501 92.501 0 0 1 21.727-59.56l185.805-220.784c18.676-22.191 52.532-23.063 72.328-1.908l183.97 222.828a92.498 92.498 0 0 1 21.17 58.892v339.354c0 51.087-41.414 92.501-92.5 92.501Z" stroke="#000" stroke-width="15"/>
  <circle cx="300.5" cy="753.5" r="87.5" fill="#E15D3F"/>
  <circle cx="338.5" cy="746.627" r="80" stroke="#000" stroke-width="15"/>
  <circle cx="339" cy="747" r="42.5" stroke="#000" stroke-width="15"/>
</svg>