<svg xmlns="http://www.w3.org/2000/svg" viewBox="0 0 24 24"><path fill="currentColor" d="M20.822 18.096c-3.439-.794-6.641-1.49-5.09-4.418C20.451 4.766 16.983 0 12 0 6.918 0 3.535 4.949 8.268 13.678c1.598 2.945-1.725 3.641-5.09 4.418C.199 18.784 0 20.239 0 22.759L.005 24H2c0-3.134-.125-3.55 1.838-4.003 2.851-.657 5.543-1.278 6.525-3.456.359-.795.592-2.103-.338-3.815C7.967 8.927 7.447 5.637 8.602 3.7c1.354-2.275 5.426-2.264 6.767-.034 1.15 1.911.639 5.219-1.403 9.076-.91 1.719-.671 3.023-.31 3.814.99 2.167 3.707 2.794 6.584 3.458C22.119 20.45 22 20.896 22 24h1.995L24 22.759c0-2.52-.199-3.975-3.178-4.663z"/></svg>