<svg viewBox="0 0 960 917" fill="none" xmlns="http://www.w3.org/2000/svg">
  <path d="M470.489 32.27c2.994-9.213 16.028-9.213 19.022 0l100.501 309.312a10 10 0 0 0 9.51 6.91h325.229c9.688 0 13.715 12.396 5.878 18.09L667.513 557.746a10.002 10.002 0 0 0-3.632 11.181l100.501 309.311c2.994 9.213-7.551 16.874-15.388 11.18L485.878 698.254a9.999 9.999 0 0 0-11.756 0L211.006 889.418c-7.837 5.694-18.382-1.967-15.388-11.18l100.501-309.311a10.002 10.002 0 0 0-3.632-11.181L29.371 366.582c-7.837-5.694-3.81-18.09 5.878-18.09h325.229a10 10 0 0 0 9.51-6.91L470.489 32.27Z" stroke="currentColor" stroke-width="50"/>
</svg>